<?xml version="1.0" encoding="UTF-8"?>
<!-- Generator: Adobe Illustrator 22.1.0, SVG Export Plug-In . SVG Version: 6.00 Build 0)  -->
<svg version="1.1" id="Layer_1" xmlns="http://www.w3.org/2000/svg" xmlns:xlink="http://www.w3.org/1999/xlink" x="0px" y="0px" viewBox="0 0 35 35" fill="darkslategray" width="12px" height="12px" style="enable-background:new 0 0 259 35;" xml:space="preserve">
<g>
	<path d="M32.6,5.9c-0.1-0.1-0.1-0.2-0.2-0.2c-1.8-1.8-4.3-2.9-7-2.9s-5.2,1.1-7,2.9c-0.5,0.5-0.9,1-1.3,1.6l0,0c0,0,0,0.1,0,0.2   c0,0.2,0.1,0.3,0.3,0.3h0.1l0,0c1.1-0.4,2.4-0.7,3.7-0.7c2.9,0,5.5,1.2,7.4,3l0,0l0,0l0,0c0.1,0,0.1,0.1,0.2,0.1l0,0l0,0h3.7   c0.2,0,0.3-0.1,0.3-0.3V6.2l0,0C32.7,6.1,32.6,6,32.6,5.9z"/>
	<path d="M32.4,17.8h-2.5h-0.8h-0.5l0,0l0,0c-2,0-3.6-1.5-3.8-3.5l0,0c0-0.2-0.1-0.3-0.3-0.3l0,0l0,0l0,0l0,0   c-0.8,0.1-1.6,0.4-2.1,0.9l0,0L22.3,15l0,0l-0.1,0.1l0,0l-0.1,0.1l0,0c0,0,0,0.1-0.1,0.1c0,0,0,0,0,0.1c0,0,0,0.1-0.1,0.1   c0,0,0,0,0,0.1c0,0,0,0.1-0.1,0.1c0,0,0,0,0,0.1c0,0,0,0.1-0.1,0.1c0,0,0,0,0,0.1v0.1c0,0,0,0,0,0.1v0.1v0.1v0.1v0.1v0.1v0.1v0.1   V17v0.1v0.1v0.1v0.1v0.1v0.1c0,0,0,0,0,0.1v0.1c0,0,0,0,0,0.1s0,0.1,0,0.2l0,0l0,0v0.1c0,2.1,1.7,3.7,3.8,3.7h1.8h0.9   c0.2,0,0.3,0.1,0.3,0.3v1c0,0.2,0.1,0.3,0.3,0.3h0.1c1.6-0.3,3.1-1.1,4.3-2.1l0,0c0.1-0.1,0.1-0.1,0.1-0.2l0,0l0,0v-1.7v-0.3V18   C32.7,17.9,32.5,17.8,32.4,17.8z"/>
	<path d="M32.2,29C32.2,29,32.1,29,32.2,29L32.2,29C32.1,29,32.1,29,32.2,29L32.2,29c-2,0.7-4.2,1.2-6.4,1.2   c-9.5,0-17.3-7.7-17.3-17.3c0-2.2,0.4-4.3,1.2-6.3l0,0V6.5c0-0.2-0.1-0.3-0.3-0.3c-0.1,0-0.2,0-0.2,0.1l0,0   c-2.8,2.9-4.5,6.9-4.5,11.3C4.7,26.7,12,34,21.1,34c4.4,0,8.4-1.7,11.3-4.5l0,0c0.1-0.1,0.1-0.1,0.1-0.2C32.5,29.1,32.4,29,32.2,29   z"/>
</g>
</svg>